<svg width="64" height="64" viewBox="0 0 64 64" fill="none" xmlns="http://www.w3.org/2000/svg">
  <!-- Background Circle -->
  <circle cx="32" cy="32" r="30" fill="#1A237E" stroke="#008080" stroke-width="3"/>
  
  <!-- Inventory Boxes/Tiles -->
  <rect x="16" y="24" width="8" height="8" fill="white" rx="2"/>
  <rect x="28" y="24" width="8" height="8" fill="white" rx="2"/>
  <rect x="40" y="24" width="8" height="8" fill="white" rx="2"/>
  
  <!-- Stacked Inventory -->
  <rect x="20" y="36" width="6" height="6" fill="#008080" rx="1"/>
  <rect x="27" y="36" width="6" height="6" fill="#008080" rx="1"/>
  <rect x="34" y="36" width="6" height="6" fill="#008080" rx="1"/>
  
  <!-- Progress/Flow Arrow -->
  <path d="M12 48 L20 48 L20 52 L24 48 L20 44 L20 48" fill="white"/>
  <path d="M44 48 L52 48 L52 52 L56 48 L52 44 L52 48" fill="white"/>
  
  <!-- Small inventory indicators -->
  <circle cx="18" cy="18" r="2" fill="#008080"/>
  <circle cx="32" cy="14" r="2" fill="#008080"/>
  <circle cx="46" cy="18" r="2" fill="#008080"/>
</svg>
